<svg width="14" height="14" viewBox="0 0 14 14" fill="none" xmlns="http://www.w3.org/2000/svg">
<path d="M5.66927 12.1653V9.93334C5.66927 9.07828 6.33247 8.40508 7.31374 8.02141C6.698 7.79201 6.0316 7.66668 5.33594 7.66668C4.07602 7.66668 2.91215 8.07788 1.97118 8.77334C2.55726 10.4363 3.94442 11.7213 5.66927 12.1653ZM11.5889 9.72394C11.3267 9.36841 10.4498 9.00001 9.33594 9.00001C7.99854 9.00001 7.0026 9.53114 7.0026 9.93334V12.3333C8.95294 12.3333 10.6588 11.2864 11.5889 9.72394ZM5.36927 6.66668C6.19767 6.66668 6.86927 5.99508 6.86927 5.16668C6.86927 4.33825 6.19767 3.66668 5.36927 3.66668C4.54084 3.66668 3.86927 4.33825 3.86927 5.16668C3.86927 5.99508 4.54084 6.66668 5.36927 6.66668ZM9.33594 7.33334C10.0723 7.33334 10.6693 6.73641 10.6693 6.00001C10.6693 5.26363 10.0723 4.66668 9.33594 4.66668C8.59954 4.66668 8.0026 5.26363 8.0026 6.00001C8.0026 6.73641 8.59954 7.33334 9.33594 7.33334ZM7.0026 13.6667C3.3207 13.6667 0.335938 10.6819 0.335938 7.00001C0.335938 3.31811 3.3207 0.333344 7.0026 0.333344C10.6845 0.333344 13.6693 3.31811 13.6693 7.00001C13.6693 10.6819 10.6845 13.6667 7.0026 13.6667Z" fill="#0047CC"/>
</svg>
