<svg width="18" height="18" viewBox="0 0 18 18" fill="none" xmlns="http://www.w3.org/2000/svg">
<g clip-path="url(#clip0_6495_3160)">
<path d="M9 6V9L10.5 10.5" stroke="#0047CC" stroke-width="1.25" stroke-linecap="round" stroke-linejoin="round"/>
<path d="M2.28906 8.24999C2.45713 6.60003 3.22676 5.0697 4.45111 3.95096C5.67546 2.83223 7.26883 2.2034 8.92722 2.18446C10.5856 2.16552 12.1929 2.75779 13.4425 3.84827C14.6921 4.93874 15.4965 6.4511 15.7022 8.09679C15.9079 9.74248 15.5005 11.4063 14.5578 12.7708C13.6151 14.1353 12.203 15.105 10.591 15.4949C8.979 15.8847 7.27987 15.6675 5.81781 14.8845C4.35575 14.1016 3.2331 12.8078 2.66406 11.25M2.28906 15V11.25H6.03906" stroke="#0047CC" stroke-width="1.25" stroke-linecap="round" stroke-linejoin="round"/>
</g>
<defs>
<clipPath id="clip0_6495_3160">
<rect width="18" height="18" fill="white"/>
</clipPath>
</defs>
</svg>
