<svg width="16" height="13" viewBox="0 0 16 13" fill="none" xmlns="http://www.w3.org/2000/svg">
<path d="M1.87247 2.46679L4.67199 4.33313L7.46282 0.425954C7.67682 0.126347 8.09322 0.0569538 8.39282 0.270954C8.45269 0.313714 8.50502 0.366087 8.54782 0.425954L11.3387 4.33313L14.1382 2.46679C14.4446 2.26255 14.8584 2.34533 15.0627 2.65169C15.1505 2.78343 15.1886 2.94213 15.1701 3.09938L14.0746 12.411C14.0351 12.7467 13.7506 12.9998 13.4125 12.9998H2.59815C2.2601 12.9998 1.97555 12.7467 1.93605 12.411L0.840568 3.09938C0.797548 2.73371 1.05911 2.40241 1.42477 2.35939C1.58203 2.34089 1.74073 2.37896 1.87247 2.46679ZM8.00535 8.99981C8.74169 8.99981 9.33869 8.40288 9.33869 7.66648C9.33869 6.93008 8.74169 6.33315 8.00535 6.33315C7.26895 6.33315 6.67202 6.93008 6.67202 7.66648C6.67202 8.40288 7.26895 8.99981 8.00535 8.99981Z" fill="#0047CC"/>
</svg>
