<svg width="20" height="20" viewBox="0 0 20 20" fill="none" xmlns="http://www.w3.org/2000/svg">
<path d="M14.1667 1.66663V3.33329H16.6722C17.1293 3.33329 17.5 3.70408 17.5 4.16113V17.5055C17.5 17.9626 17.1292 18.3333 16.6722 18.3333H3.32783C2.87063 18.3333 2.5 17.9625 2.5 17.5055V4.16113C2.5 3.70393 2.87079 3.33329 3.32783 3.33329H5.83333V1.66663H14.1667ZM5.83333 4.99996H4.16667V16.6666H15.8333V4.99996H14.1667V6.66663H5.83333V4.99996ZM7.5 13.3333V15H5.83333V13.3333H7.5ZM7.5 10.8333V12.5H5.83333V10.8333H7.5ZM7.5 8.33329V9.99996H5.83333V8.33329H7.5ZM12.5 3.33329H7.5V4.99996H12.5V3.33329Z" fill="#0047CC"/>
</svg>
