<svg width="20" height="20" viewBox="0 0 20 20" fill="none" xmlns="http://www.w3.org/2000/svg">
<g clip-path="url(#clip0_4804_4563)">
<path d="M8.3331 2.66667C7.02952 2.96887 5.83053 3.61434 4.8605 4.53612C3.89047 5.4579 3.18472 6.62242 2.81646 7.9089C2.4482 9.19538 2.43083 10.557 2.76617 11.8524C3.10151 13.1479 3.77734 14.33 4.72355 15.2762C5.66977 16.2224 6.85191 16.8983 8.14736 17.2336C9.44281 17.5689 10.8044 17.5516 12.0909 17.1833C13.3773 16.8151 14.5419 16.1093 15.4637 15.1393C16.3854 14.1692 17.0309 12.9703 17.3331 11.6667C17.3331 11.4457 17.2453 11.2337 17.089 11.0774C16.9327 10.9211 16.7208 10.8333 16.4998 10.8333H10.8331C10.3911 10.8333 9.96715 10.6577 9.65459 10.3452C9.34203 10.0326 9.16643 9.6087 9.16643 9.16667V3.33334C9.15608 3.23461 9.12623 3.13892 9.07861 3.05181C9.031 2.96471 8.96656 2.88792 8.88904 2.82591C8.81153 2.76389 8.72247 2.71789 8.62704 2.69055C8.5316 2.66322 8.43169 2.6551 8.3331 2.66667Z" stroke="white" stroke-width="1.25" stroke-linecap="round" stroke-linejoin="round"/>
<path d="M12.5 2.91669C13.5581 3.28926 14.5192 3.89444 15.3124 4.68765C16.1056 5.48087 16.7108 6.44192 17.0833 7.50002H13.3333C13.1123 7.50002 12.9004 7.41222 12.7441 7.25594C12.5878 7.09966 12.5 6.8877 12.5 6.66669V2.91669Z" stroke="white" stroke-width="1.25" stroke-linecap="round" stroke-linejoin="round"/>
</g>
<defs>
<clipPath id="clip0_4804_4563">
<rect width="20" height="20" fill="white"/>
</clipPath>
</defs>
</svg>
