<svg width="18" height="18" viewBox="0 0 18 18" fill="none" xmlns="http://www.w3.org/2000/svg">
<path d="M4.83073 4.16665V1.66665C4.83073 1.20641 5.20383 0.833313 5.66406 0.833313H12.3307C12.791 0.833313 13.1641 1.20641 13.1641 1.66665V4.16665H16.4974C16.9576 4.16665 17.3307 4.53975 17.3307 4.99998V16.6666C17.3307 17.1269 16.9576 17.5 16.4974 17.5H1.4974C1.03716 17.5 0.664062 17.1269 0.664062 16.6666V4.99998C0.664062 4.53975 1.03716 4.16665 1.4974 4.16665H4.83073ZM6.4974 10.8333H2.33073V15.8333H15.6641V10.8333H11.4974V13.3333H6.4974V10.8333ZM15.6641 5.83331H2.33073V9.16665H6.4974V7.49998H11.4974V9.16665H15.6641V5.83331ZM8.16406 9.16665V11.6666H9.83073V9.16665H8.16406ZM6.4974 2.49998V4.16665H11.4974V2.49998H6.4974Z" fill="#0047CC"/>
</svg>
