<svg width="60" height="60" viewBox="0 0 60 60" fill="none" xmlns="http://www.w3.org/2000/svg">
<path d="M18.3381 57.8399C18.0246 57.8399 17.711 57.7896 17.4052 57.6928C16.6388 57.445 16.0194 56.9108 15.6517 56.1947L10.8865 46.8463C10.6814 46.4476 10.8401 45.956 11.2427 45.7547C11.6414 45.5496 12.133 45.7083 12.3343 46.1108L17.0994 55.4592C17.2659 55.7883 17.5523 56.0321 17.9046 56.1483C18.2569 56.2644 18.6323 56.2334 18.9614 56.067L19.9252 55.5754C20.2543 55.4089 20.4981 55.1225 20.6143 54.7702C20.7304 54.4179 20.6994 54.0425 20.533 53.7134L15.7678 44.365C15.5627 43.9663 15.7214 43.4747 16.1239 43.2734C16.5227 43.0683 17.0143 43.227 17.2156 43.6296L21.9807 52.9779C22.3446 53.6941 22.4104 54.5108 22.1627 55.2773C21.9149 56.0438 21.3807 56.6631 20.6646 57.0309L19.7007 57.5225C19.271 57.7276 18.8065 57.8399 18.3381 57.8399Z" fill="#F46112"/>
<path d="M9.12771 48.5573C8.83352 48.5573 8.54706 48.3948 8.40384 48.1122L3.52642 38.5393C3.42965 38.3457 3.41029 38.1251 3.4761 37.9199C3.5419 37.7148 3.689 37.5444 3.87868 37.4477L13.738 32.4231C14.1367 32.218 14.6284 32.3767 14.8296 32.7793L19.7071 42.3522C19.8038 42.5457 19.8232 42.7664 19.7574 42.9715C19.6916 43.1767 19.5445 43.347 19.3548 43.4438L9.49545 48.4683C9.37545 48.5264 9.25158 48.5573 9.12771 48.5573ZM5.3419 38.5277L9.47997 46.649L17.8916 42.3638L13.7535 34.2425L5.3419 38.5277Z" fill="#F46112"/>
<path d="M4.23825 48.7664C3.94406 48.7664 3.65761 48.6038 3.51438 48.3212L0.479544 42.3677C0.38277 42.1741 0.363415 41.9535 0.429222 41.7483C0.495028 41.5431 0.642125 41.3728 0.831802 41.276L4.79567 39.2554C5.19438 39.0502 5.686 39.2089 5.88729 39.6115C6.09245 40.0102 5.93374 40.5018 5.53116 40.7031L2.29116 42.3522L4.58664 46.858L7.82664 45.2089C8.22535 45.0038 8.71696 45.1625 8.91825 45.5651C9.12341 45.9638 8.96471 46.4554 8.56213 46.6567L4.59825 48.6773C4.486 48.7393 4.36212 48.7664 4.23825 48.7664ZM18.9789 43.5328C18.5879 43.5328 18.2434 43.2502 18.1776 42.8515C18.1041 42.4102 18.4021 41.9883 18.8473 41.9147L31.2499 39.8515L23.6357 24.9096L14.6744 33.7277C14.3531 34.0412 13.8383 34.0373 13.5247 33.7199C13.2112 33.3986 13.215 32.8838 13.5324 32.5702L23.2834 22.9702C23.4692 22.7883 23.7286 22.707 23.9841 22.7457C24.2395 22.7883 24.4602 22.947 24.5763 23.1793L33.197 40.0993C33.3131 40.3315 33.317 40.6025 33.197 40.8347C33.0808 41.067 32.8602 41.2296 32.6047 41.2722L19.1066 43.5212C19.0679 43.5289 19.0254 43.5328 18.9789 43.5328Z" fill="#0047CC"/>
<path d="M29.7881 36.0077C29.3816 36.0077 29.0332 35.7057 28.9829 35.2915C28.9287 34.8464 29.2461 34.4399 29.6913 34.3857C29.9777 34.3509 30.2526 34.2657 30.5081 34.1341C31.0965 33.8322 31.53 33.3212 31.7313 32.6902C31.9326 32.0593 31.8706 31.3935 31.561 30.8051C30.961 29.6709 29.5287 29.1831 28.3635 29.7251C28.0732 29.8606 27.8139 30.0464 27.5971 30.2786C27.2913 30.6077 26.7765 30.627 26.4474 30.3212C26.1184 30.0154 26.099 29.5006 26.4048 29.1715C26.7648 28.7844 27.1945 28.4748 27.6745 28.2502C28.6229 27.8089 29.6913 27.7548 30.69 28.0915C31.6887 28.4283 32.5055 29.1212 32.9932 30.0464C33.5081 31.018 33.6048 32.1328 33.2719 33.1819C32.939 34.2309 32.2152 35.0825 31.2358 35.5819C30.81 35.7986 30.3494 35.938 29.8771 35.996C29.8539 36.0038 29.8229 36.0077 29.7881 36.0077ZM36.0436 29.3806C35.7494 29.3806 35.4629 29.218 35.3197 28.9354C35.1145 28.5367 35.2732 28.0451 35.6758 27.8438L38.2152 26.5509C38.6139 26.3457 39.1055 26.5044 39.3068 26.907C39.5119 27.3057 39.3532 27.7973 38.9506 27.9986L36.4113 29.2915C36.2913 29.3535 36.1674 29.3806 36.0436 29.3806ZM31.0036 25.1689C30.9184 25.1689 30.8371 25.1573 30.7519 25.1302C30.3261 24.9909 30.09 24.5341 30.2294 24.1044L31.1119 21.3948C31.2513 20.9689 31.7081 20.7328 32.1377 20.8722C32.5636 21.0115 32.7997 21.4683 32.6603 21.898L31.7777 24.6077C31.6655 24.9522 31.3481 25.1689 31.0036 25.1689ZM39.3377 36.8012C39.2526 36.8012 39.1713 36.7896 39.0861 36.7625L36.3765 35.8799C35.9506 35.7406 35.7145 35.2838 35.8539 34.8541C35.9932 34.4283 36.45 34.1922 36.8797 34.3315L39.5894 35.2141C40.0152 35.3535 40.2513 35.8102 40.1119 36.2399C39.9997 36.5844 39.6823 36.8012 39.3377 36.8012ZM58.0345 24.0967H39.3648C38.9158 24.0967 38.5519 23.7328 38.5519 23.2838V10.7612C38.5519 10.3122 38.9158 9.9483 39.3648 9.9483H58.0345C58.4836 9.9483 58.8474 10.3122 58.8474 10.7612V23.2838C58.8474 23.7328 58.4836 24.0967 58.0345 24.0967ZM40.1777 22.4709H57.2216V11.5741H40.1777V22.4709Z" fill="#0047CC"/>
<path d="M48.6992 20.1755H48.6915C48.4863 20.1755 48.2889 20.098 48.1418 19.9587L38.8089 11.3613C38.4798 11.0555 38.4566 10.5445 38.7624 10.2116C39.0682 9.88256 39.5792 9.85933 39.9121 10.1651L48.6953 18.2593L57.4786 10.1651C57.8076 9.85933 58.3224 9.88256 58.6282 10.2116C58.934 10.5406 58.9108 11.0555 58.5818 11.3613L49.2489 19.9587C49.1018 20.098 48.9044 20.1755 48.6992 20.1755Z" fill="#0047CC"/>
<path d="M57.5652 23.9379C57.7085 24.0463 57.8788 24.0966 58.0452 24.0966C58.293 24.0966 58.5407 23.9844 58.7033 23.7637C58.9665 23.3999 58.8891 22.8928 58.5291 22.6257L50.973 17.067C50.6091 16.8037 50.102 16.8812 49.8349 17.2412C49.5717 17.605 49.6491 18.1121 50.0091 18.3792L57.5652 23.9379Z" fill="#0047CC"/>
<path d="M38.7214 23.7637C38.8801 23.9805 39.1239 24.0966 39.3756 24.0966C39.542 24.0966 39.7123 24.0463 39.8594 23.9418L47.4156 18.3831C47.7794 18.116 47.8568 17.605 47.5898 17.245C47.3227 16.8812 46.8117 16.8037 46.4517 17.0708L38.8956 22.6257C38.5317 22.8928 38.4543 23.4037 38.7214 23.7637Z" fill="#0047CC"/>
<path d="M17.2307 11.4192C16.0616 11.4192 15.1094 10.467 15.1094 9.29793C15.1094 8.12889 16.0616 7.17664 17.2307 7.17664C18.3997 7.17664 19.352 8.12889 19.352 9.29793C19.352 10.467 18.3997 11.4192 17.2307 11.4192ZM17.2307 8.80244C16.9558 8.80244 16.7352 9.02309 16.7352 9.29793C16.7352 9.57277 16.9558 9.79341 17.2307 9.79341C17.5055 9.79341 17.7261 9.57277 17.7261 9.29793C17.7261 9.02309 17.5016 8.80244 17.2307 8.80244ZM22.112 11.4192C20.9429 11.4192 19.9907 10.467 19.9907 9.29793C19.9907 8.12889 20.9429 7.17664 22.112 7.17664C23.281 7.17664 24.2332 8.12889 24.2332 9.29793C24.2332 10.467 23.281 11.4192 22.112 11.4192ZM22.112 8.80244C21.8371 8.80244 21.6165 9.02309 21.6165 9.29793C21.6165 9.57277 21.8371 9.79341 22.112 9.79341C22.3868 9.79341 22.6074 9.57277 22.6074 9.29793C22.6074 9.02309 22.3829 8.80244 22.112 8.80244ZM26.9932 11.4192C25.8242 11.4192 24.872 10.467 24.872 9.29793C24.872 8.12889 25.8242 7.17664 26.9932 7.17664C28.1623 7.17664 29.1107 8.12889 29.1107 9.29793C29.1107 10.467 28.1623 11.4192 26.9932 11.4192ZM26.9932 8.80244C26.7184 8.80244 26.4978 9.02309 26.4978 9.29793C26.4978 9.57277 26.7184 9.79341 26.9932 9.79341C27.2681 9.79341 27.4887 9.57277 27.4887 9.29793C27.4887 9.02309 27.2642 8.80244 26.9932 8.80244Z" fill="#F46112"/>
<path d="M19.1107 19.5038C18.8204 19.5038 18.5533 19.3489 18.4062 19.0973L16.0023 14.936H14.7907C13.2346 14.936 11.9688 13.6702 11.9688 12.1141V3.48185C11.9688 1.92572 13.2346 0.659912 14.7907 0.659912H29.4462C31.0023 0.659912 32.2681 1.92572 32.2681 3.48185V12.118C32.2681 13.6741 31.0023 14.9399 29.4462 14.9399H22.2152L19.8113 19.1012C19.6681 19.3489 19.401 19.5038 19.1107 19.5038ZM14.7907 2.28572C14.1326 2.28572 13.5946 2.81991 13.5946 3.48185V12.118C13.5946 12.776 14.1287 13.3141 14.7907 13.3141H16.4746C16.7649 13.3141 17.032 13.4689 17.1791 13.7206L19.1107 17.0689L21.0423 13.7206C21.1894 13.4689 21.4565 13.3141 21.7468 13.3141H29.4462C30.1042 13.3141 30.6423 12.7799 30.6423 12.118V3.48185C30.6423 2.82378 30.1081 2.28572 29.4462 2.28572H14.7907Z" fill="#F46112"/>
<path d="M57.1895 48.1335H54.3637C53.9147 48.1335 53.5508 47.7697 53.5508 47.3206C53.5508 46.8716 53.9147 46.5077 54.3637 46.5077H57.1895C57.4566 46.5077 57.6734 46.291 57.6734 46.0239C57.6734 45.7568 57.4566 45.54 57.1895 45.54C56.7405 45.54 56.3766 45.1761 56.3766 44.7271C56.3766 44.2781 56.7405 43.9142 57.1895 43.9142C58.3508 43.9142 59.2992 44.8587 59.2992 46.0239C59.2992 47.189 58.3547 48.1335 57.1895 48.1335Z" fill="#12A5F4"/>
<path d="M50.9274 50.7271C50.3429 50.7271 49.7274 50.6845 49.0538 50.6032C48.3261 50.5142 47.6177 50.4135 46.9287 50.1542C46.6538 50.0497 46.3712 49.9103 46.0693 49.7206C46.0345 49.6974 45.9958 49.6742 45.9609 49.651C45.7945 49.5464 45.6512 49.4535 45.5196 49.411C45.4887 49.4071 45.4035 49.4071 45.3377 49.411C45.299 49.411 45.2603 49.4148 45.2216 49.4148L44.6332 49.4187H44.6254C44.1803 49.4187 43.8164 49.0587 43.8125 48.6135C43.8087 48.1645 44.1687 47.7968 44.6177 47.7929L45.2061 47.789H45.2951C45.477 47.7852 45.7287 47.7774 45.9996 47.8626C46.3364 47.9671 46.5996 48.1335 46.8319 48.2806C46.8629 48.3 46.8977 48.3232 46.9287 48.3426C47.1416 48.4742 47.3196 48.5671 47.4977 48.6329C48.0203 48.8264 48.6009 48.9116 49.2512 48.989C49.9674 49.0781 50.6061 49.1129 51.2022 49.0974H56.5558C56.8229 49.0974 57.0396 48.8806 57.0396 48.6135C57.0396 48.3464 56.8229 48.1297 56.5558 48.1297C56.1067 48.1297 55.7429 47.7658 55.7429 47.3168C55.7429 46.8677 56.1067 46.5039 56.5558 46.5039C57.717 46.5039 58.6654 47.4484 58.6654 48.6135C58.6654 49.7787 57.7209 50.7232 56.5558 50.7232H51.2293C51.1325 50.7271 51.028 50.7271 50.9274 50.7271ZM56.997 42.9464H54.868C54.419 42.9464 54.0551 42.5826 54.0551 42.1335C54.0551 41.6845 54.419 41.3206 54.868 41.3206H56.997C57.2641 41.3206 57.4809 41.1039 57.4809 40.8368C57.4809 40.5697 57.2641 40.3529 56.997 40.3529H51.5158C51.0667 40.3529 50.7029 39.989 50.7029 39.54C50.7029 39.0019 50.8151 38.491 51.0358 38.0148C51.1287 37.8174 51.2254 37.6277 51.3183 37.4419C51.4964 37.0858 51.6667 36.7529 51.7867 36.4084C52.0693 35.5916 52.3016 34.4303 51.8138 33.5052C51.8099 33.5013 51.8061 33.4935 51.8022 33.4858C51.6783 33.3193 51.5158 33.1916 51.3687 33.1452C51.2254 33.1026 51.0396 33.1258 50.9506 33.2574C50.908 33.3193 50.9196 33.5206 50.9235 33.6329C50.9429 34.0626 50.9235 34.4497 50.8693 34.8174C50.757 35.5723 50.5287 36.2419 50.188 36.8148C50.1687 36.8806 50.1416 36.9426 50.1029 37.0006C50.0796 37.0355 49.9403 37.26 49.7003 37.589C49.6887 37.6045 49.677 37.62 49.6693 37.6316C49.6616 37.6432 49.6538 37.6548 49.6461 37.6626C48.8409 38.7387 47.037 40.7632 44.7299 41.0613C44.2848 41.1194 43.8783 40.8058 43.8203 40.3606C43.7622 39.9155 44.0758 39.509 44.5209 39.451C45.7093 39.2961 46.7777 38.4213 47.4667 37.7168C47.8151 37.3568 48.1054 37.0084 48.3145 36.7297C48.3183 36.7258 48.3183 36.7219 48.3222 36.7142C48.3377 36.6871 48.3648 36.6484 48.3996 36.5903C48.4693 36.4819 48.5816 36.3077 48.7325 36.0793C48.9958 35.6729 49.1777 35.1697 49.2629 34.5813C49.3016 34.3142 49.3132 34.0277 49.3016 33.6987C49.2861 33.2961 49.2938 32.8316 49.5919 32.371C50.0603 31.651 50.9893 31.3297 51.8448 31.589C52.3248 31.7361 52.7738 32.0652 53.1067 32.5142C53.1416 32.5606 53.1687 32.5993 53.1958 32.6419C53.2074 32.6574 53.2151 32.6768 53.2267 32.6923C53.8577 33.8419 53.8925 35.3129 53.3274 36.9387C53.1725 37.3877 52.9674 37.7903 52.77 38.1774C52.677 38.3594 52.5919 38.5297 52.5106 38.7039L52.499 38.7271H56.997C58.1583 38.7271 59.1067 39.6716 59.1067 40.8368C59.1067 42.0019 58.1583 42.9464 56.997 42.9464Z" fill="#12A5F4"/>
<path d="M54.7035 45.5398H57.5022C58.6674 45.5398 59.6119 44.5953 59.6119 43.4302C59.6119 42.265 58.6635 41.3205 57.5022 41.3205C57.0532 41.3205 56.6893 41.6844 56.6893 42.1334C56.6893 42.5824 57.0532 42.9463 57.5022 42.9463C57.7693 42.9463 57.9861 43.1631 57.9861 43.4302C57.9861 43.6973 57.7693 43.914 57.5022 43.914H54.7035C54.2545 43.914 53.8906 44.2779 53.8906 44.7269C53.8906 45.176 54.2545 45.5398 54.7035 45.5398Z" fill="#12A5F4"/>
<path d="M44.6273 50.6147H40.1254C39.6764 50.6147 39.3125 50.2509 39.3125 49.8018V39.1257C39.3125 38.6767 39.6764 38.3128 40.1254 38.3128H44.6273C45.0764 38.3128 45.4402 38.6767 45.4402 39.1257V49.8018C45.4402 50.2509 45.0764 50.6147 44.6273 50.6147ZM40.9383 48.9889H43.8144V39.9386H40.9383V48.9889Z" fill="#12A5F4"/>
</svg>
