<svg width="60" height="60" viewBox="0 0 60 60" fill="none" xmlns="http://www.w3.org/2000/svg">
<path d="M13.125 41.25C12.8764 41.25 12.6379 41.3488 12.4621 41.5246C12.2863 41.7004 12.1875 41.9389 12.1875 42.1875V55.3125C12.1875 55.5611 12.2863 55.7996 12.4621 55.9754C12.6379 56.1512 12.8764 56.25 13.125 56.25H19.6875V57.1875C19.6875 57.4361 19.7863 57.6746 19.9621 57.8504C20.1379 58.0262 20.3764 58.125 20.625 58.125H39.375C39.6236 58.125 39.8621 58.0262 40.0379 57.8504C40.2137 57.6746 40.3125 57.4361 40.3125 57.1875V56.25H46.875C47.1236 56.25 47.3621 56.1512 47.5379 55.9754C47.7137 55.7996 47.8125 55.5611 47.8125 55.3125V42.1875C47.8125 41.9389 47.7137 41.7004 47.5379 41.5246C47.3621 41.3488 47.1236 41.25 46.875 41.25H40.3125V29.0625C40.3125 28.8139 40.2137 28.5754 40.0379 28.3996C39.8621 28.2238 39.6236 28.125 39.375 28.125H37.5V25.3125C37.5 24.2784 36.6591 23.4375 35.625 23.4375H30.9375V20.625H29.0625V23.4375H24.375C23.3409 23.4375 22.5 24.2784 22.5 25.3125V28.125H20.625C20.3764 28.125 20.1379 28.2238 19.9621 28.3996C19.7863 28.5754 19.6875 28.8139 19.6875 29.0625V41.25H13.125ZM45.9375 43.125V54.375H40.3125V43.125H45.9375ZM31.875 56.25H28.125V53.4375H31.875V56.25ZM24.375 25.3125H35.625V28.125H24.375V25.3125ZM21.5625 30H38.4375V56.25H33.75V52.5C33.75 52.2514 33.6512 52.0129 33.4754 51.8371C33.2996 51.6613 33.0611 51.5625 32.8125 51.5625H27.1875C26.9389 51.5625 26.7004 51.6613 26.5246 51.8371C26.3488 52.0129 26.25 52.2514 26.25 52.5V56.25H21.5625V30ZM14.0625 54.375V43.125H19.6875V54.375H14.0625Z" fill="#0047CC"/>
<path d="M24.375 37.5H35.625V39.375H24.375V37.5ZM24.375 32.8125H35.625V34.6875H24.375V32.8125ZM24.375 42.1875H35.625V44.0625H24.375V42.1875ZM24.375 46.875H35.625V48.75H24.375V46.875ZM42.1875 45H44.0625V46.875H42.1875V45ZM42.1875 48.75H44.0625V50.625H42.1875V48.75ZM15.9375 45H17.8125V46.875H15.9375V45ZM15.9375 48.75H17.8125V50.625H15.9375V48.75Z" fill="#F46112"/>
<path fill-rule="evenodd" clip-rule="evenodd" d="M10.4375 26.25C15.0894 26.25 18.875 22.4644 18.875 17.8125C18.875 13.1606 15.0894 9.375 10.4375 9.375C5.78562 9.375 2 13.1606 2 17.8125C2 22.4644 5.78562 26.25 10.4375 26.25ZM17 17.8125C17 14.1938 14.0562 11.25 10.4375 11.25C6.81875 11.25 3.875 14.1938 3.875 17.8125C3.87537 19.21 4.32499 20.5704 5.1575 21.6928C5.60379 20.5948 6.44824 19.7058 7.52187 19.2037C7.00812 18.5616 6.6875 17.7591 6.6875 16.875C6.6875 14.8069 8.36938 13.125 10.4375 13.125C12.5056 13.125 14.1875 14.8069 14.1875 16.875C14.1875 17.7591 13.8669 18.5616 13.3531 19.2037C14.4268 19.7058 15.2712 20.5948 15.7175 21.6928C16.55 20.5704 16.9996 19.21 17 17.8125ZM10.4375 18.75C9.40344 18.75 8.5625 17.9091 8.5625 16.875C8.5625 15.8409 9.40344 15 10.4375 15C11.4716 15 12.3125 15.8409 12.3125 16.875C12.3125 17.9091 11.4716 18.75 10.4375 18.75ZM7.60171 21.3724C7.08508 21.8508 6.76714 22.5059 6.71094 23.2078C7.77031 23.9419 9.05375 24.375 10.4375 24.375C11.8212 24.375 13.1047 23.9419 14.1641 23.2078C14.1079 22.5059 13.7899 21.8508 13.2733 21.3724C12.7567 20.894 12.0791 20.6272 11.375 20.625H9.5C8.79589 20.6272 8.11833 20.894 7.60171 21.3724Z" fill="#12A5F4"/>
<path fill-rule="evenodd" clip-rule="evenodd" d="M30.125 18.75C34.7769 18.75 38.5625 14.9644 38.5625 10.3125C38.5625 5.66062 34.7769 1.875 30.125 1.875C25.4731 1.875 21.6875 5.66062 21.6875 10.3125C21.6875 14.9644 25.4731 18.75 30.125 18.75ZM28.25 9.375C28.25 10.4091 29.0909 11.25 30.125 11.25C31.1591 11.25 32 10.4091 32 9.375C32 8.34094 31.1591 7.5 30.125 7.5C29.0909 7.5 28.25 8.34094 28.25 9.375ZM26.3984 15.7078C26.4546 15.0059 26.7726 14.3508 27.2892 13.8724C27.8058 13.394 28.4834 13.1272 29.1875 13.125H31.0625C31.7666 13.1272 32.4442 13.394 32.9608 13.8724C33.4774 14.3508 33.7954 15.0059 33.8516 15.7078C32.7922 16.4419 31.5088 16.875 30.125 16.875C28.7412 16.875 27.4578 16.4419 26.3984 15.7078ZM36.6875 10.3125C36.6875 6.69375 33.7437 3.75 30.125 3.75C26.5063 3.75 23.5625 6.69375 23.5625 10.3125C23.5629 11.71 24.0125 13.0704 24.845 14.1928C25.2913 13.0948 26.1357 12.2058 27.2094 11.7038C26.6956 11.0616 26.375 10.2591 26.375 9.375C26.375 7.30688 28.0569 5.625 30.125 5.625C32.1931 5.625 33.875 7.30688 33.875 9.375C33.875 10.2591 33.5544 11.0616 33.0406 11.7038C34.1143 12.2058 34.9587 13.0948 35.405 14.1928C36.2375 13.0704 36.6871 11.71 36.6875 10.3125Z" fill="#12A5F4"/>
<path fill-rule="evenodd" clip-rule="evenodd" d="M49.8125 9.375C45.1606 9.375 41.375 13.1606 41.375 17.8125C41.375 22.4644 45.1606 26.25 49.8125 26.25C54.4644 26.25 58.25 22.4644 58.25 17.8125C58.25 13.1606 54.4644 9.375 49.8125 9.375ZM52.7281 19.2037C53.8018 19.7058 54.6462 20.5948 55.0925 21.6928C55.925 20.5704 56.3746 19.21 56.375 17.8125C56.375 14.1938 53.4313 11.25 49.8125 11.25C46.1937 11.25 43.25 14.1938 43.25 17.8125C43.2504 19.21 43.7 20.5704 44.5325 21.6928C44.9788 20.5948 45.8232 19.7058 46.8969 19.2037C46.3831 18.5616 46.0625 17.7591 46.0625 16.875C46.0625 14.8069 47.7444 13.125 49.8125 13.125C51.8806 13.125 53.5625 14.8069 53.5625 16.875C53.5625 17.7591 53.2419 18.5616 52.7281 19.2037ZM49.8125 18.75C48.7784 18.75 47.9375 17.9091 47.9375 16.875C47.9375 15.8409 48.7784 15 49.8125 15C50.8466 15 51.6875 15.8409 51.6875 16.875C51.6875 17.9091 50.8466 18.75 49.8125 18.75ZM46.9767 21.3724C46.4601 21.8508 46.1421 22.5059 46.0859 23.2078C47.1453 23.9419 48.4287 24.375 49.8125 24.375C51.1963 24.375 52.4797 23.9419 53.5391 23.2078C53.4829 22.5059 53.1649 21.8508 52.6483 21.3724C52.1317 20.894 51.4541 20.6272 50.75 20.625H48.875C48.1709 20.6272 47.4933 20.894 46.9767 21.3724Z" fill="#12A5F4"/>
</svg>
