<svg width="60" height="60" viewBox="0 0 60 60" fill="none" xmlns="http://www.w3.org/2000/svg">
<g clip-path="url(#clip0_6842_1206)">
<path fill-rule="evenodd" clip-rule="evenodd" d="M20.8607 31.9107C20.8607 37.3392 25.2772 41.7558 30.7057 41.7558C36.1342 41.7558 40.5507 37.3392 40.5507 31.9107C40.5507 26.4823 36.1342 22.0658 30.7057 22.0658C25.2772 22.0658 20.8607 26.4821 20.8607 31.9107ZM30.7056 39.8808C35.1002 39.8808 38.6756 36.3054 38.6756 31.9107C38.6756 27.5161 35.1002 23.9408 30.7056 23.9408C26.3109 23.9408 22.7355 27.5161 22.7355 31.9107C22.7355 36.3054 26.3109 39.8808 30.7056 39.8808Z" fill="#F46112"/>
<path fill-rule="evenodd" clip-rule="evenodd" d="M42.8057 15.9504C44.5914 18.0893 47.2758 19.4531 50.2734 19.4531C55.6368 19.4531 60 15.0899 60 9.72656C60 4.36324 55.6368 0 50.2734 0C44.9101 0 40.5469 4.36324 40.5469 9.72656C40.5457 11.2368 40.8986 12.7262 41.5771 14.0754H33.3688C33.1202 14.0754 32.8817 14.1742 32.7059 14.35L28.4364 18.6195C24.5073 19.2882 21.1519 21.6619 19.1617 24.9506H14.9507L11.6644 19.2587C16.1024 18.3579 19.4531 14.4264 19.4531 9.72656C19.4531 4.36324 15.0899 0 9.72656 0C4.36324 0 0 4.36324 0 9.72656C0 15.0507 4.30043 19.3871 9.60984 19.4502L13.5975 26.357C13.6798 26.4995 13.7981 26.6179 13.9406 26.7002C14.0831 26.7825 14.2448 26.8258 14.4094 26.8257H18.2189C17.5771 28.3958 17.2223 30.1126 17.2223 31.911C17.2223 37.0935 20.1619 41.6017 24.4609 43.8579V47.7909L19.4427 50.6883C19.4486 50.5506 19.4532 50.4127 19.4532 50.2737C19.4532 44.9104 15.09 40.5471 9.72668 40.5471C4.36336 40.5471 0 44.9101 0 50.2734C0 55.6368 4.36324 60 9.72656 60C14.1115 60 17.8266 57.0827 19.0365 53.0876L25.8671 49.144C26.0097 49.0617 26.1281 48.9434 26.2103 48.8009C26.2926 48.6584 26.3359 48.4967 26.3359 48.3321V44.6668C27.7422 45.1495 29.2189 45.3953 30.7057 45.3941C33.7841 45.3941 36.6243 44.3564 38.8964 42.6134L41.5431 45.1816C41.136 45.9737 41.2719 46.972 41.9434 47.6236L48.833 54.309C49.2205 54.6854 49.7397 54.8955 50.2799 54.8946C50.8225 54.8946 51.3647 54.6839 51.7714 54.2647L54.259 51.7012C55.0568 50.8791 55.037 49.5611 54.2148 48.763L47.3252 42.0775C47.1298 41.887 46.8984 41.7372 46.6447 41.6368C46.3909 41.5364 46.1197 41.4873 45.8468 41.4925C45.5996 41.4965 45.355 41.5445 45.1247 41.6344L42.2597 38.8543C43.4838 36.825 44.1891 34.4489 44.1891 31.9111C44.1891 24.6646 38.4428 18.7361 31.2677 18.4404L33.7574 15.9507L42.8057 15.9504ZM50.2734 11.5118C47.7664 11.5118 45.6511 13.2777 45.174 15.6895C46.5471 16.8654 48.3281 17.5781 50.2734 17.5781C52.2188 17.5781 53.9998 16.8654 55.3729 15.6895C54.8958 13.2777 52.7804 11.5118 50.2734 11.5118ZM48.1079 7.47094C48.1079 8.66508 49.0794 9.63668 50.2736 9.63668C51.4677 9.63668 52.4392 8.66508 52.4392 7.47094C52.4392 6.2768 51.4677 5.30531 50.2736 5.30531C49.0794 5.30531 48.1079 6.2768 48.1079 7.47094ZM58.125 9.72656C58.125 5.39719 54.6028 1.875 50.2734 1.875C45.9441 1.875 42.4219 5.39719 42.4219 9.72656C42.4219 11.3189 42.8997 12.8012 43.7176 14.0402C44.4023 12.3506 45.7148 11.0025 47.3561 10.2623C46.6613 9.53625 46.2329 8.55305 46.2329 7.47105C46.2329 5.24309 48.0456 3.43043 50.2736 3.43043C52.5015 3.43043 54.3142 5.24297 54.3142 7.47105C54.3142 8.55305 53.8859 9.53625 53.1909 10.2623C54.832 11.0026 56.1445 12.3506 56.8293 14.0401C57.6472 12.8012 58.125 11.3189 58.125 9.72656ZM7.56106 7.47094C7.56106 8.66508 8.53254 9.63668 9.72668 9.63668C10.9208 9.63668 11.8923 8.66508 11.8923 7.47094C11.8923 6.2768 10.9208 5.30531 9.72668 5.30531C8.53254 5.30531 7.56106 6.2768 7.56106 7.47094ZM14.826 15.6894C14.3489 13.2776 12.2336 11.5117 9.72656 11.5117C7.21957 11.5117 5.10434 13.2776 4.62715 15.6895C6.00023 16.8654 7.78125 17.5781 9.72656 17.5781C11.6719 17.5781 13.4529 16.8654 14.826 15.6894ZM17.5781 9.72656C17.5781 5.39719 14.0559 1.875 9.72656 1.875C5.39719 1.875 1.875 5.39719 1.875 9.72656C1.875 11.3189 2.35277 12.8012 3.17074 14.0401C3.85547 12.3505 5.16797 11.0024 6.80918 10.2623C6.11437 9.53625 5.68605 8.55305 5.68605 7.47105C5.68605 5.24309 7.49871 3.43043 9.72668 3.43043C11.9546 3.43043 13.7673 5.24297 13.7673 7.47105C13.7673 8.55305 13.339 9.53625 12.6441 10.2623C14.2852 11.0026 15.5977 12.3506 16.2824 14.0401C17.1004 12.8012 17.5781 11.3189 17.5781 9.72656ZM9.72656 52.0586C7.21957 52.0586 5.10422 53.8245 4.62715 56.2364C6.00023 57.4123 7.78125 58.125 9.72656 58.125C11.6719 58.125 13.4529 57.4123 14.826 56.2364C14.3488 53.8245 12.2336 52.0586 9.72656 52.0586ZM7.56106 48.0178C7.56106 49.212 8.53254 50.1834 9.72668 50.1834C10.9208 50.1834 11.8923 49.212 11.8923 48.0178C11.8923 46.8237 10.9208 45.8522 9.72668 45.8522C8.53254 45.8522 7.56106 46.8237 7.56106 48.0178ZM12.6442 50.8091C14.2853 51.5494 15.5977 52.8974 16.2825 54.587C17.1004 53.3481 17.5781 51.8658 17.5781 50.2734C17.5781 45.9441 14.0559 42.4219 9.72656 42.4219C5.39719 42.4219 1.875 45.9441 1.875 50.2734C1.875 51.8658 2.35277 53.3481 3.17062 54.587C3.85547 52.8973 5.16797 51.5493 6.80918 50.809C6.11426 50.083 5.68605 49.0998 5.68605 48.0178C5.68605 45.7898 7.49871 43.9772 9.72668 43.9772C11.9546 43.9772 13.7673 45.7897 13.7673 48.0178C13.7673 49.0998 13.3391 50.083 12.6442 50.8091ZM45.8782 43.367H45.8748C45.8482 43.367 45.8219 43.3723 45.7974 43.3826C45.7728 43.3929 45.7506 43.4081 45.7321 43.4271L43.2445 45.9907C43.2077 46.0297 43.1876 46.0815 43.1884 46.1351C43.1892 46.1888 43.2109 46.2399 43.2489 46.2778L50.1384 52.9631C50.1774 52.9999 50.2292 53.02 50.2828 53.0192C50.3364 53.0184 50.3876 52.9967 50.4255 52.9588L52.9131 50.3954C52.9896 50.3164 52.9876 50.185 52.9086 50.1083L46.0192 43.4229C45.972 43.377 45.9171 43.367 45.8782 43.367ZM42.784 43.7729L43.6822 42.8473L41.1671 40.4066C40.8954 40.7405 40.608 41.0614 40.3058 41.3681L42.784 43.7729ZM30.7056 43.5191C37.1064 43.5191 42.3138 38.3116 42.3138 31.9109C42.3138 25.5101 37.1064 20.3025 30.7056 20.3025C24.3048 20.3025 19.0972 25.5101 19.0972 31.9109C19.0972 38.3116 24.3048 43.5191 30.7056 43.5191Z" fill="#0047CC"/>
<path d="M33.0156 27.6795V35.6785C33.0156 35.9271 33.1144 36.1656 33.2902 36.3414C33.466 36.5172 33.7045 36.616 33.9531 36.616C34.2018 36.616 34.4402 36.5172 34.616 36.3414C34.7919 36.1656 34.8906 35.9271 34.8906 35.6785V27.6795C34.8906 27.4309 34.7919 27.1924 34.616 27.0166C34.4402 26.8408 34.2018 26.742 33.9531 26.742C33.7045 26.742 33.466 26.8408 33.2902 27.0166C33.1144 27.1924 33.0156 27.4309 33.0156 27.6795Z" fill="#0047CC"/>
<path d="M30.8035 29.1979C30.6277 29.0221 30.3893 28.9233 30.1406 28.9233C29.6229 28.9233 29.2031 29.3432 29.2031 29.8608V35.6784C29.2031 35.927 29.3019 36.1655 29.4777 36.3413C29.6535 36.5171 29.892 36.6159 30.1406 36.6159C30.3893 36.6159 30.6277 36.5171 30.8035 36.3413C30.9794 36.1655 31.0781 35.927 31.0781 35.6784V29.8608C31.0781 29.6122 30.9794 29.3737 30.8035 29.1979Z" fill="#12A5F4"/>
<path d="M27.2812 35.6784V32.3221C27.2812 32.0735 27.1825 31.835 27.0067 31.6592C26.8308 31.4834 26.5924 31.3846 26.3438 31.3846C26.0951 31.3846 25.8566 31.4834 25.6808 31.6592C25.505 31.835 25.4062 32.0735 25.4062 32.3221V35.6784C25.4062 35.927 25.505 36.1655 25.6808 36.3413C25.8566 36.5171 26.0951 36.6159 26.3438 36.6159C26.5924 36.6159 26.8308 36.5171 27.0067 36.3413C27.1825 36.1655 27.2812 35.927 27.2812 35.6784Z" fill="#F46112"/>
</g>
<defs>
<clipPath id="clip0_6842_1206">
<rect width="60" height="60" fill="white"/>
</clipPath>
</defs>
</svg>
