<svg width="18" height="15" viewBox="0 0 18 15" fill="none" xmlns="http://www.w3.org/2000/svg">
<path d="M2.1036 2.90023L5.25306 4.99987L8.39274 0.604288C8.63349 0.26723 9.10194 0.189163 9.43899 0.42992C9.50634 0.478025 9.56522 0.536945 9.61337 0.604288L12.7531 4.99987L15.9025 2.90023C16.2472 2.67046 16.7128 2.7636 16.9426 3.10825C17.0414 3.25645 17.0842 3.43499 17.0634 3.6119L15.831 14.0875C15.7865 14.4652 15.4664 14.7498 15.0861 14.7498H2.91999C2.53968 14.7498 2.21957 14.4652 2.17513 14.0875L0.942709 3.6119C0.894312 3.20053 1.18857 2.82781 1.59994 2.77941C1.77685 2.7586 1.95539 2.80142 2.1036 2.90023ZM9.00309 10.2499C9.83147 10.2499 10.5031 9.5783 10.5031 8.74985C10.5031 7.92148 9.83147 7.24985 9.00309 7.24985C8.17464 7.24985 7.50309 7.92148 7.50309 8.74985C7.50309 9.5783 8.17464 10.2499 9.00309 10.2499Z" fill="white"/>
</svg>
