<svg width="60" height="60" viewBox="0 0 60 60" fill="none" xmlns="http://www.w3.org/2000/svg">
<path d="M54.8438 13.7694L41.9466 0.9375H13.5446C11.5772 0.9375 9.96094 2.4443 9.96094 4.41164V22.7632C9.96094 22.7597 10.0808 22.7344 10.1605 22.7344H11.7188V4.41164C11.7188 3.42949 12.5625 2.69531 13.5446 2.69531H41.152L41.7188 3.22676V10.4447C41.7188 12.4039 43.312 13.9453 45.2713 13.9453H52.4892L52.9688 14.5072V55.4705C52.9688 56.4526 52.2865 57.3047 51.3043 57.3047H13.5446C12.5625 57.3047 11.7188 56.4525 11.7188 55.4705V48.3984H10.1605C10.0808 48.3984 9.96094 48.4028 9.96094 48.3993V55.4703C9.96094 57.4378 11.5772 59.0625 13.5446 59.0625H51.3045C53.2718 59.0625 54.8438 57.4378 54.8438 55.4705V13.7694ZM45.2713 12.1875C44.2891 12.1875 43.4766 11.4268 43.4766 10.4447V5.14934L50.5666 12.1875H45.2713Z" fill="#F46112"/>
<path d="M43.7815 24.4922H8.71852C6.75117 24.4922 5.15625 26.0871 5.15625 28.0545V42.9612C5.15625 44.9285 6.75117 46.5234 8.71852 46.5234H43.7815C45.7488 46.5234 47.3438 44.9285 47.3438 42.9612V28.0545C47.3438 26.0871 45.7488 24.4922 43.7815 24.4922ZM16.8819 39.0517C17.3814 39.0517 17.8939 38.9821 18.3626 38.8432C18.8311 38.7041 19.2188 38.5369 19.8047 38.3411V40.9211C18.75 41.3382 17.7679 41.5467 16.5784 41.5467C14.8739 41.5467 13.5529 41.0523 12.6441 40.0637C11.7352 39.0749 11.2736 37.646 11.2736 35.7768C11.2736 34.6078 11.4901 33.5805 11.9304 32.6947C12.3707 31.8091 13.0022 31.128 13.8287 30.6517C14.6552 30.1753 15.6263 29.9372 16.7438 29.9372C17.9643 29.9372 19.13 30.2025 20.2424 30.7328L19.3076 33.1351C18.9014 32.9438 18.4834 32.7786 18.0561 32.6407C17.6389 32.5068 17.1909 32.4398 16.712 32.4398C15.9859 32.4398 15.4194 32.7373 15.0127 33.332C14.6058 33.9267 14.4025 34.7468 14.4025 35.7921C14.4025 37.9652 15.229 39.0517 16.8819 39.0517ZM25.2241 33.6988C25.4532 33.8739 26.075 34.1931 27.0895 34.6566C28.0628 35.0943 28.7386 35.5642 29.1171 36.0662C29.4955 36.5682 29.6849 37.2005 29.6849 37.9625C29.6849 38.663 29.5071 39.2846 29.1519 39.8279C28.7966 40.3713 28.2841 40.7934 27.6148 41.0947C26.9453 41.396 26.1599 41.5466 25.2588 41.5466C24.5068 41.5466 23.887 41.4937 23.3771 41.3882C22.8674 41.2828 22.3827 41.0985 21.7968 40.8359V38.117C22.3827 38.4157 22.9729 38.6488 23.6012 38.816C24.2293 38.9835 24.8007 39.0671 25.3261 39.0671C25.7791 39.0671 26.1086 38.9886 26.3198 38.8315C26.5309 38.6745 26.6352 38.4724 26.6352 38.2252C26.6352 38.0707 26.5921 37.9355 26.5071 37.8196C26.4221 37.7038 26.2853 37.5867 26.0973 37.4681C25.9093 37.3498 25.4084 37.1078 24.5948 36.7421C23.8583 36.4075 23.306 36.0831 22.9379 35.7688C22.5697 35.4547 22.2968 35.0943 22.1191 34.6874C21.9415 34.2806 21.8527 33.7991 21.8527 33.2429C21.8527 32.2029 22.2312 31.3918 22.9881 30.8098C23.745 30.2279 24.7852 29.937 26.1087 29.937C27.2776 29.937 28.4696 30.2073 29.685 30.7479L28.7503 33.1038C27.6946 32.6198 26.7831 32.3777 26.0159 32.3777C25.6193 32.3777 25.3309 32.4472 25.1508 32.5862C24.9704 32.7253 24.8804 32.8978 24.8804 33.1038C24.8804 33.3255 24.995 33.5237 25.2241 33.6988ZM37.8035 41.3672H34.2118L30.5273 30.1172H33.957L35.4941 35.832C35.8133 37.1039 35.9884 37.9852 36.0193 38.4846C36.0553 38.1243 36.1275 37.6713 36.2357 37.1307C36.3438 36.59 36.439 36.173 36.5215 35.8641L38.0893 30.1172H41.5035L37.8035 41.3672Z" fill="#0047CC"/>
</svg>
