<svg width="16" height="16" viewBox="0 0 16 16" fill="none" xmlns="http://www.w3.org/2000/svg">
<path d="M7.08017 11.8638L7.66524 10.5237C8.18597 9.33115 9.12317 8.38182 10.2922 7.86288L11.9027 7.14802C12.4147 6.92075 12.4147 6.17587 11.9027 5.9486L10.3425 5.25604C9.14337 4.72376 8.18937 3.73929 7.67757 2.50604L7.08491 1.0779C6.86497 0.547925 6.1327 0.547927 5.91277 1.0779L5.32009 2.50603C4.80829 3.73929 3.85426 4.72376 2.65514 5.25604L1.09496 5.9486C0.582931 6.17587 0.58293 6.92075 1.09496 7.14802L2.70544 7.86288C3.8745 8.38182 4.81171 9.33115 5.33241 10.5237L5.91751 11.8638C6.14241 12.3789 6.85524 12.3789 7.08017 11.8638ZM12.9382 15.1267L13.1027 14.7495C13.396 14.0772 13.9244 13.5417 14.5836 13.2489L15.0905 13.0236C15.3647 12.9018 15.3647 12.5034 15.0905 12.3815L14.612 12.1689C13.9358 11.8685 13.398 11.3133 13.1096 10.618L12.9407 10.2105C12.8229 9.92648 12.4302 9.92648 12.3124 10.2105L12.1435 10.618C11.8552 11.3133 11.3174 11.8685 10.6412 12.1689L10.1626 12.3815C9.88851 12.5034 9.88851 12.9018 10.1626 13.0236L10.6696 13.2489C11.3288 13.5417 11.8571 14.0772 12.1504 14.7495L12.315 15.1267C12.4354 15.4027 12.8177 15.4027 12.9382 15.1267Z" fill="#0047CC"/>
</svg>
