<svg width="42" height="42" viewBox="0 0 42 42" fill="none" xmlns="http://www.w3.org/2000/svg">
<g clip-path="url(#clip0_5676_2432)">
<path d="M36.4541 0.327792H13.0692C10.0191 0.327792 7.52344 2.82343 7.52344 5.8736V7.76064H28.6769C31.7271 7.76064 34.2227 10.2563 34.2227 13.3064V27.1326H36.4541C39.5042 27.1326 41.9999 24.6369 41.9999 21.5868V5.8736C41.9999 2.82335 39.5042 0.327792 36.4541 0.327792Z" fill="#F46112"/>
<path d="M32.5221 7.50708H9.13724C8.59028 7.50692 8.04636 7.58837 7.52344 7.74874V7.76064H28.6769C31.7271 7.76064 34.2227 10.2563 34.2227 13.3064V27.1326H36.454C37.0009 27.1327 37.5449 27.0513 38.0678 26.8909V13.0529C38.0679 10.0027 35.5722 7.50708 32.5221 7.50708Z" fill="#A33900"/>
<path d="M28.9306 7.50708H5.5458C2.49564 7.50708 0 10.0027 0 13.0529V28.766C0 31.8161 2.49564 34.3118 5.5458 34.3118H19.581C20.1827 34.3118 20.6319 34.8717 20.4943 35.4574C20.1221 37.042 19.5526 38.7178 18.7106 40.4356C18.3325 41.2071 19.1926 41.9914 19.9232 41.5392C22.0356 40.2319 25.041 38.0439 27.5721 34.9507C27.9048 34.5441 28.4052 34.3117 28.9306 34.3117C31.9808 34.3117 34.4764 31.8161 34.4764 28.7659V13.0528C34.4764 10.0027 31.9808 7.50708 28.9306 7.50708Z" fill="#12A5F4"/>
<path d="M24.0859 35.4574C24.2234 34.8716 23.7743 34.3118 23.1726 34.3118H19.581C20.1827 34.3118 20.6318 34.8716 20.4943 35.4574C20.1221 37.042 19.5526 38.7178 18.7106 40.4356C18.3325 41.2071 19.1926 41.9914 19.9232 41.5392C20.87 40.9529 21.7874 40.3202 22.672 39.6436C23.3144 38.2029 23.7711 36.7975 24.0859 35.4574ZM3.59157 28.766V13.0529C3.59157 10.0027 6.08721 7.50708 9.13738 7.50708H5.54581C2.49564 7.50708 0 10.0027 0 13.0529V28.766C0 31.8161 2.49564 34.3118 5.54581 34.3118H9.13738C6.08713 34.3118 3.59157 31.8162 3.59157 28.766Z" fill="#0875AF"/>
<path d="M7.68795 23.201C8.70431 23.201 9.52823 22.3771 9.52823 21.3607C9.52823 20.3443 8.70431 19.5204 7.68795 19.5204C6.67158 19.5204 5.84766 20.3443 5.84766 21.3607C5.84766 22.3771 6.67158 23.201 7.68795 23.201Z" fill="#DFEBFA"/>
<path d="M13.6294 23.201C14.6457 23.201 15.4696 22.3771 15.4696 21.3607C15.4696 20.3443 14.6457 19.5204 13.6294 19.5204C12.613 19.5204 11.7891 20.3443 11.7891 21.3607C11.7891 22.3771 12.613 23.201 13.6294 23.201Z" fill="#DFEBFA"/>
<path d="M19.5747 23.201C20.591 23.201 21.415 22.3771 21.415 21.3607C21.415 20.3443 20.591 19.5204 19.5747 19.5204C18.5583 19.5204 17.7344 20.3443 17.7344 21.3607C17.7344 22.3771 18.5583 23.201 19.5747 23.201Z" fill="#DFEBFA"/>
<path d="M25.52 23.201C26.5363 23.201 27.3603 22.3771 27.3603 21.3607C27.3603 20.3443 26.5363 19.5204 25.52 19.5204C24.5036 19.5204 23.6797 20.3443 23.6797 21.3607C23.6797 22.3771 24.5036 23.201 25.52 23.201Z" fill="#DFEBFA"/>
<path d="M7.68795 21.3607C7.68795 20.6797 8.05823 20.0854 8.60809 19.7672C8.32852 19.6052 8.01107 19.5201 7.68795 19.5204C6.67158 19.5204 5.84766 20.3443 5.84766 21.3607C5.84766 22.3771 6.67158 23.201 7.68795 23.201C8.01107 23.2013 8.32853 23.1162 8.60809 22.9542C8.05815 22.636 7.68795 22.0417 7.68795 21.3607ZM13.6319 21.3607C13.6319 20.6797 14.0022 20.0854 14.5521 19.7672C14.2725 19.6052 13.9551 19.5201 13.6319 19.5204C12.6156 19.5204 11.7916 20.3443 11.7916 21.3607C11.7916 22.3771 12.6156 23.201 13.6319 23.201C13.9673 23.201 14.2813 23.1108 14.5521 22.9542C14.0021 22.636 13.6319 22.0417 13.6319 21.3607ZM19.5758 21.3607C19.5758 20.6797 19.9461 20.0854 20.496 19.7672C20.2164 19.6052 19.899 19.5201 19.5758 19.5204C18.5595 19.5204 17.7355 20.3443 17.7355 21.3607C17.7355 22.3771 18.5595 23.201 19.5758 23.201C19.899 23.2013 20.2164 23.1162 20.496 22.9542C19.9461 22.636 19.5758 22.0417 19.5758 21.3607ZM25.5198 21.3607C25.5198 20.6797 25.89 20.0854 26.44 19.7672C26.1604 19.6052 25.8429 19.5201 25.5198 19.5204C24.5035 19.5204 23.6795 20.3443 23.6795 21.3607C23.6795 22.3771 24.5035 23.201 25.5198 23.201C25.8429 23.2013 26.1604 23.1162 26.44 22.9542C25.89 22.636 25.5198 22.0417 25.5198 21.3607Z" fill="#97CAE5"/>
</g>
<defs>
<clipPath id="clip0_5676_2432">
<rect width="42" height="42" fill="white"/>
</clipPath>
</defs>
</svg>
