<svg width="14" height="14" viewBox="0 0 14 14" fill="none" xmlns="http://www.w3.org/2000/svg">
<path d="M3.72301 3.48204C4.62116 2.76359 5.76041 2.33398 7 2.33398C8.23958 2.33398 9.37883 2.76359 10.277 3.48204L11.1248 2.63424L11.9498 3.45919L11.1019 4.307C11.8204 5.20514 12.25 6.3444 12.25 7.58398C12.25 10.4835 9.89952 12.834 7 12.834C4.10051 12.834 1.75 10.4835 1.75 7.58398C1.75 6.3444 2.17961 5.20514 2.89806 4.307L2.05025 3.45919L2.87521 2.63424L3.72301 3.48204ZM7.58333 7.00065V4.37285L4.66667 8.16732H6.41667V10.7923L9.33333 7.00065H7.58333ZM4.66667 0.583984H9.33333V1.75065H4.66667V0.583984Z" fill="#4CA3EE"/>
</svg>
