<svg width="4" height="18" viewBox="0 0 4 18" fill="none" xmlns="http://www.w3.org/2000/svg">
<path d="M2 0.75C1.24375 0.75 0.625 1.36875 0.625 2.125C0.625 2.88125 1.24375 3.5 2 3.5C2.75625 3.5 3.375 2.88125 3.375 2.125C3.375 1.36875 2.75625 0.75 2 0.75ZM2 14.5C1.24375 14.5 0.625 15.1188 0.625 15.875C0.625 16.6313 1.24375 17.25 2 17.25C2.75625 17.25 3.375 16.6313 3.375 15.875C3.375 15.1188 2.75625 14.5 2 14.5ZM2 7.625C1.24375 7.625 0.625 8.24375 0.625 9C0.625 9.75625 1.24375 10.375 2 10.375C2.75625 10.375 3.375 9.75625 3.375 9C3.375 8.24375 2.75625 7.625 2 7.625Z" fill="#0047CC"/>
</svg>
