<svg width="60" height="60" viewBox="0 0 60 60" fill="none" xmlns="http://www.w3.org/2000/svg">
<g clip-path="url(#clip0_6842_1213)">
<path d="M48.0003 31.9999C46.7993 31.9999 45.734 32.5419 45 33.3819C44.266 32.5419 43.201 31.9999 42 31.9999C40.799 31.9999 39.734 32.5419 39 33.3819C38.266 32.5419 37.201 31.9999 36 31.9999C35.268 31.9999 34.591 32.2119 34 32.5559V29.4439C34.13 29.4079 34.261 29.3729 34.39 29.3339C34.489 29.3039 34.585 29.2679 34.683 29.2359C34.984 29.1369 35.281 29.0309 35.574 28.9139C35.653 28.8819 35.731 28.8489 35.809 28.8159C36.147 28.6739 36.479 28.5209 36.805 28.3549C36.823 28.3459 36.841 28.3369 36.858 28.3279C38.247 27.6139 39.527 26.6909 40.642 25.5689C40.674 25.5359 40.686 25.4909 40.713 25.4549C43.376 22.7189 45 18.9979 45 14.9999C45 10.8559 43.348 6.99988 40.348 4.13988C37.349 1.28288 33.412 -0.180119 29.262 0.017881C21.896 0.371881 15.796 6.15988 15.075 13.4829C14.623 18.0709 16.292 22.4149 19.315 25.4999C19.333 25.5209 19.339 25.5499 19.359 25.5699C19.427 25.6389 19.501 25.7009 19.57 25.7679C19.62 25.8169 19.672 25.8629 19.723 25.9119C19.9745 26.1486 20.234 26.3767 20.501 26.5959C20.581 26.6609 20.66 26.7269 20.741 26.7909C21.009 27.0009 21.283 27.2009 21.564 27.3919C21.634 27.4399 21.701 27.4899 21.772 27.5369C22.1182 27.7642 22.4735 27.9774 22.837 28.1759C22.921 28.2219 23.009 28.2609 23.094 28.3049C23.3763 28.4517 23.6631 28.5898 23.954 28.7189C24.088 28.7779 24.224 28.8329 24.361 28.8879C24.6278 28.9956 24.8976 29.0956 25.17 29.1879C25.301 29.2329 25.431 29.2789 25.564 29.3199C25.709 29.3649 25.855 29.4059 26.002 29.4459V44.5869L22.744 41.3289C21.886 40.4719 20.747 39.9999 19.535 39.9999C17.034 39.9999 15 42.0339 15 44.5349C15 45.7469 15.472 46.8859 16.328 47.7419L26 57.4139V58.9999C26 59.5529 26.447 59.9999 27 59.9999H50.0004C50.5534 59.9999 51.0004 59.5529 51.0004 58.9999V55.2359L51.8954 53.4469C51.9645 53.308 52.0005 53.155 52.0004 52.9999V35.9959C52.0004 33.7929 50.2063 31.9999 48.0003 31.9999ZM19.53 22.6719C17.691 20.1579 16.739 16.9919 17.065 13.6779C17.69 7.33588 22.975 2.32088 29.357 2.01588C32.959 1.83588 36.369 3.11188 38.967 5.58788C41.568 8.06588 43 11.4089 43 14.9999C43 17.8249 42.066 20.4929 40.469 22.6679C39.519 19.7049 37.333 17.2509 34.485 15.9709C35.424 14.9119 36 13.5239 36 11.9999C36 8.69088 33.309 5.99988 30 5.99988C26.691 5.99988 24 8.69088 24 11.9999C24 13.5239 24.576 14.9119 25.515 15.9719C22.666 17.2519 20.479 19.7069 19.53 22.6719ZM34 11.9999C34 13.4759 33.188 14.7529 31.995 15.4459C31.99 15.4489 31.984 15.4489 31.978 15.4519C31.7 15.6119 31.413 15.7299 31.123 15.8189C31.07 15.8349 31.019 15.8549 30.964 15.8679C30.856 15.8959 30.747 15.9159 30.638 15.9349C30.457 15.9639 30.274 15.9869 30.086 15.9909C30.028 15.9919 29.97 15.9919 29.911 15.9909C29.723 15.9869 29.54 15.9649 29.359 15.9349C29.25 15.9159 29.141 15.8969 29.033 15.8679C28.979 15.8539 28.928 15.8339 28.874 15.8189C28.5763 15.7287 28.2895 15.6056 28.019 15.4519C28.014 15.4489 28.008 15.4489 28.003 15.4459C26.812 14.7539 26 13.4759 26 11.9999C26 9.79388 27.794 7.99988 30 7.99988C32.206 7.99988 34 9.79388 34 11.9999ZM26 23.9999V27.3649C25.583 27.2309 25.177 27.0699 24.778 26.8959C24.665 26.8459 24.556 26.7909 24.445 26.7379C24.1636 26.6054 23.887 26.4626 23.616 26.3099C23.4879 26.2384 23.3612 26.1644 23.236 26.0879C22.977 25.9299 22.725 25.7599 22.477 25.5839C22.368 25.5059 22.255 25.4339 22.149 25.3529C21.8265 25.1081 21.5158 24.8482 21.218 24.5739C21.188 24.5469 21.162 24.5169 21.132 24.4889C21.7 21.1549 24.144 18.3799 27.393 17.3949C28.182 17.7789 29.065 17.9999 30 17.9999C30.935 17.9999 31.818 17.7789 32.608 17.3949C35.85 18.3769 38.289 21.1429 38.864 24.4689C38.729 24.5959 38.597 24.7259 38.457 24.8469C38.428 24.8719 38.398 24.8959 38.368 24.9209C37.8907 25.325 37.3854 25.6949 36.856 26.0279C36.833 26.0429 36.81 26.0599 36.787 26.0739C36.595 26.1929 36.395 26.2989 36.196 26.4079C36.009 26.5089 35.821 26.6079 35.63 26.6999C35.4671 26.7799 35.3024 26.8562 35.136 26.9289C34.786 27.0789 34.431 27.2199 34.068 27.3389C34.045 27.3469 34.024 27.3559 34.001 27.3639V23.9999C34.001 21.7939 32.207 19.9999 30.001 19.9999C27.795 19.9999 26 21.7939 26 23.9999ZM50.0004 52.7639L49.1054 54.5529C49.0363 54.6918 49.0002 54.8448 49.0003 54.9999V57.9999H28V56.9999C28 56.7339 27.895 56.4799 27.707 56.2929L17.742 46.3279C17.5059 46.0929 17.3188 45.8134 17.1915 45.5057C17.0641 45.1979 16.999 44.868 17 44.5349C17 43.1379 18.138 41.9999 19.535 41.9999C19.8681 41.999 20.198 42.0641 20.5057 42.1915C20.8135 42.3188 21.093 42.5059 21.328 42.7419L26.293 47.7069C26.58 47.9939 27.009 48.0809 27.383 47.9239C27.5658 47.8483 27.722 47.7201 27.8318 47.5556C27.9417 47.3911 28.0002 47.1977 28 46.9999V23.9999C28 22.8969 28.897 21.9999 30 21.9999C31.103 21.9999 32 22.8969 32 23.9999V41.9999H34V35.9999C34 34.8969 34.897 33.9999 36 33.9999C37.103 33.9999 38 34.8969 38 35.9999V41.9999H40V35.9999C40 34.8969 40.897 33.9999 42 33.9999C43.103 33.9999 44 34.8969 44 35.9999V41.9999H46V35.9999C46 34.8969 46.8973 33.9999 48.0003 33.9999C49.1033 33.9999 50.0004 34.8959 50.0004 35.9959V52.7639Z" fill="#0047CC"/>
<path d="M56.221 17.7919C57.3 16.8739 58 15.5239 58 13.9999C58 11.2429 55.757 8.99994 53 8.99994C50.243 8.99994 48 11.2429 48 13.9999C48 15.5239 48.7 16.8739 49.779 17.7919C47.537 18.9599 46 21.3019 46 23.9999V26.9999C46 27.5529 46.447 27.9999 47 27.9999H59C59.553 27.9999 60 27.5529 60 26.9999V23.9999C60 21.3019 58.463 18.9599 56.221 17.7919ZM53 10.9999C54.654 10.9999 56 12.3459 56 13.9999C56 15.6539 54.654 16.9999 53 16.9999C51.346 16.9999 50 15.6539 50 13.9999C50 12.3459 51.346 10.9999 53 10.9999ZM58 25.9999H48V23.9999C48 21.2429 50.243 18.9999 53 18.9999C55.757 18.9999 58 21.2429 58 23.9999V25.9999Z" fill="#12A5F4"/>
<path fill-rule="evenodd" clip-rule="evenodd" d="M12.0703 14.176C12.0703 15.7 11.3703 17.05 10.2913 17.968C12.5333 19.136 14.0703 21.478 14.0703 24.176V27.176C14.0703 27.729 13.6233 28.176 13.0703 28.176H1.07031C0.517313 28.176 0.0703125 27.729 0.0703125 27.176V24.176C0.0703125 21.478 1.60731 19.136 3.84931 17.968C2.77031 17.05 2.07031 15.7 2.07031 14.176C2.07031 11.419 4.31331 9.17596 7.07031 9.17596C9.82731 9.17596 12.0703 11.419 12.0703 14.176ZM7.07031 11.176C8.72431 11.176 10.0703 12.522 10.0703 14.176C10.0703 15.83 8.72431 17.176 7.07031 17.176C5.41631 17.176 4.07031 15.83 4.07031 14.176C4.07031 12.522 5.41631 11.176 7.07031 11.176ZM2.07031 24.176V26.176H12.0703V24.176C12.0703 21.419 9.82731 19.176 7.07031 19.176C4.31331 19.176 2.07031 21.419 2.07031 24.176Z" fill="#F46112"/>
</g>
<defs>
<clipPath id="clip0_6842_1213">
<rect width="60" height="60" fill="white"/>
</clipPath>
</defs>
</svg>
