<svg width="16" height="16" viewBox="0 0 16 16" fill="none" xmlns="http://www.w3.org/2000/svg">
<g id="Frame">
<path id="Vector" d="M5.33333 2.66665H14V3.99998H5.33333V2.66665ZM3 4.33331C2.44771 4.33331 2 3.8856 2 3.33331C2 2.78103 2.44771 2.33331 3 2.33331C3.55229 2.33331 4 2.78103 4 3.33331C4 3.8856 3.55229 4.33331 3 4.33331ZM3 8.99998C2.44771 8.99998 2 8.55225 2 7.99998C2 7.44771 2.44771 6.99998 3 6.99998C3.55229 6.99998 4 7.44771 4 7.99998C4 8.55225 3.55229 8.99998 3 8.99998ZM3 13.6C2.44771 13.6 2 13.1522 2 12.6C2 12.0477 2.44771 11.6 3 11.6C3.55229 11.6 4 12.0477 4 12.6C4 13.1522 3.55229 13.6 3 13.6ZM5.33333 7.33331H14V8.66665H5.33333V7.33331ZM5.33333 12H14V13.3333H5.33333V12Z" fill="#0047CC"/>
</g>
</svg>
