<svg width="14" height="14" viewBox="0 0 14 14" fill="none" xmlns="http://www.w3.org/2000/svg">
<path d="M3.5026 2.33268H2.33594V1.16602H11.6693V2.33268H10.5026V3.49935C10.5026 4.44168 10.0265 5.19958 9.427 5.81907C9.01697 6.24277 8.5181 6.63302 8.0123 6.99935C8.5181 7.36568 9.01697 7.75593 9.427 8.17961C10.0265 8.79911 10.5026 9.55703 10.5026 10.4993V11.666H11.6693V12.8327H2.33594V11.666H3.5026V10.4993C3.5026 9.55703 3.9787 8.79911 4.57821 8.17961C4.98825 7.75593 5.48712 7.36568 5.99291 6.99935C5.48712 6.63302 4.98825 6.24277 4.57821 5.81907C3.9787 5.19958 3.5026 4.44168 3.5026 3.49935V2.33268ZM4.66927 2.33268V3.49935C4.66927 3.89901 4.82109 4.27809 5.1192 4.66602H8.88601C9.1841 4.27809 9.33594 3.89901 9.33594 3.49935V2.33268H4.66927ZM7.0026 7.71212C6.3929 8.1428 5.8406 8.55277 5.41658 8.99097C5.30515 9.10612 5.20598 9.21975 5.1192 9.33268H8.88601C8.79921 9.21975 8.70005 9.10612 8.58863 8.99097C8.1646 8.55277 7.6123 8.1428 7.0026 7.71212Z" fill="white"/>
</svg>
