<svg width="14" height="17" viewBox="0 0 14 17" fill="none" xmlns="http://www.w3.org/2000/svg">
<path d="M7 14.6746L10.7123 10.9623C12.7625 8.91208 12.7625 5.58794 10.7123 3.53769C8.66207 1.48744 5.33794 1.48744 3.28769 3.53769C1.23744 5.58794 1.23744 8.91208 3.28769 10.9623L7 14.6746ZM7 16.7959L2.22703 12.023C-0.40901 9.3869 -0.40901 5.11307 2.22703 2.47703C4.86307 -0.15901 9.1369 -0.15901 11.773 2.47703C14.409 5.11307 14.409 9.3869 11.773 12.023L7 16.7959ZM7 8.75C7.82845 8.75 8.5 8.07845 8.5 7.25C8.5 6.42157 7.82845 5.75 7 5.75C6.17155 5.75 5.5 6.42157 5.5 7.25C5.5 8.07845 6.17155 8.75 7 8.75ZM7 10.25C5.34314 10.25 4 8.90683 4 7.25C4 5.59314 5.34314 4.25 7 4.25C8.65683 4.25 10 5.59314 10 7.25C10 8.90683 8.65683 10.25 7 10.25Z" fill="black"/>
</svg>
