<svg width="20" height="20" viewBox="0 0 20 20" fill="none" xmlns="http://www.w3.org/2000/svg">
<path d="M10.8868 6.75896L12.0653 7.93747C14.3433 10.2155 14.3433 13.909 12.0653 16.187L11.7706 16.4817C9.49259 18.7598 5.7991 18.7598 3.52104 16.4817C1.24299 14.2036 1.24299 10.5102 3.52104 8.23209L4.69955 9.4106C3.07237 11.0378 3.07237 13.676 4.69955 15.3032C6.32674 16.9304 8.96493 16.9304 10.5921 15.3032L10.8868 15.0085C12.5139 13.3814 12.5139 10.7432 10.8868 9.11602L9.70826 7.93747L10.8868 6.75896ZM16.4847 11.7676L15.3062 10.5891C16.9333 8.96194 16.9333 6.32374 15.3062 4.69656C13.679 3.06938 11.0408 3.06938 9.41359 4.69656L9.11901 4.99119C7.49179 6.61838 7.49179 9.2566 9.11901 10.8838L10.2975 12.0623L9.11901 13.2408L7.94046 12.0623C5.6624 9.78419 5.6624 6.09074 7.94046 3.81268L8.23509 3.51805C10.5132 1.23999 14.2066 1.23999 16.4847 3.51805C18.7628 5.79611 18.7628 9.4896 16.4847 11.7676Z" fill="#0047CC"/>
</svg>
