<svg width="20" height="20" viewBox="0 0 20 20" fill="none" xmlns="http://www.w3.org/2000/svg">
<g clip-path="url(#clip0_4804_4553)">
<path d="M17.5002 11.6667L15.0002 9.16667H9.16683C8.94582 9.16667 8.73385 9.07887 8.57757 8.92259C8.42129 8.76631 8.3335 8.55435 8.3335 8.33333V3.33333C8.3335 3.11232 8.42129 2.90036 8.57757 2.74408C8.73385 2.5878 8.94582 2.5 9.16683 2.5H16.6668C16.8878 2.5 17.0998 2.5878 17.2561 2.74408C17.4124 2.90036 17.5002 3.11232 17.5002 3.33333V11.6667Z" stroke="white" stroke-width="1.25" stroke-linecap="round" stroke-linejoin="round"/>
<path d="M11.6667 12.5V14.1666C11.6667 14.3877 11.5789 14.5996 11.4226 14.7559C11.2663 14.9122 11.0543 15 10.8333 15H5L2.5 17.5V9.16665C2.5 8.94563 2.5878 8.73367 2.74408 8.57739C2.90036 8.42111 3.11232 8.33331 3.33333 8.33331H5" stroke="white" stroke-width="1.25" stroke-linecap="round" stroke-linejoin="round"/>
</g>
<defs>
<clipPath id="clip0_4804_4553">
<rect width="20" height="20" fill="white"/>
</clipPath>
</defs>
</svg>
