<svg width="16" height="17" viewBox="0 0 16 17" fill="none" xmlns="http://www.w3.org/2000/svg">
<path d="M8.82356 0.575073L1.39893 1.63573L0.338283 9.06035L7.23258 15.9546C7.52546 16.2475 8.00028 16.2475 8.29323 15.9546L15.7178 8.53002C16.0107 8.23715 16.0107 7.76225 15.7178 7.46937L8.82356 0.575073ZM8.29323 2.16606L14.1268 7.9997L7.76291 14.3637L1.92926 8.53002L2.72471 2.96156L8.29323 2.16606ZM6.70218 6.93905C7.28801 6.35325 7.28801 5.4035 6.70218 4.81771C6.11643 4.23192 5.16671 4.23192 4.58088 4.81771C3.99513 5.4035 3.99513 6.35325 4.58088 6.93905C5.16671 7.5248 6.11643 7.5248 6.70218 6.93905Z" fill="black"/>
</svg>
