<svg width="12" height="14" viewBox="0 0 12 14" fill="none" xmlns="http://www.w3.org/2000/svg">
<path d="M6.00357 0.333374C6.37177 0.333374 6.67024 0.631854 6.67024 1.00004V3.00004C6.67024 3.36823 6.37177 3.66671 6.00357 3.66671C5.63537 3.66671 5.33691 3.36823 5.33691 3.00004V1.00004C5.33691 0.631854 5.63537 0.333374 6.00357 0.333374ZM6.00357 10.3334C6.37177 10.3334 6.67024 10.6318 6.67024 11V13C6.67024 13.3682 6.37177 13.6667 6.00357 13.6667C5.63537 13.6667 5.33691 13.3682 5.33691 13V11C5.33691 10.6318 5.63537 10.3334 6.00357 10.3334ZM11.777 3.66671C11.9612 3.98557 11.8519 4.39329 11.533 4.57739L9.80097 5.57739C9.48211 5.76151 9.07437 5.65223 8.89031 5.33337C8.70624 5.01451 8.81544 4.60679 9.13431 4.42269L10.8664 3.42269C11.1852 3.23859 11.593 3.34785 11.777 3.66671ZM3.11681 8.66671C3.3009 8.98557 3.19165 9.39331 2.87279 9.57737L1.14074 10.5774C0.821872 10.7615 0.414146 10.6522 0.230052 10.3334C0.045959 10.0145 0.155206 9.60677 0.474072 9.42271L2.20612 8.42271C2.52498 8.23857 2.93271 8.34784 3.11681 8.66671ZM11.777 10.3334C11.593 10.6522 11.1852 10.7615 10.8664 10.5774L9.13431 9.57737C8.81544 9.39331 8.70624 8.98557 8.89031 8.66671C9.07437 8.34784 9.48211 8.23857 9.80097 8.42271L11.533 9.42271C11.8519 9.60677 11.9612 10.0145 11.777 10.3334ZM3.11681 5.33337C2.93271 5.65223 2.52498 5.76151 2.20612 5.57739L0.474072 4.57739C0.155206 4.39329 0.045959 3.98557 0.230052 3.66671C0.414146 3.34785 0.821872 3.23859 1.14074 3.42269L2.87279 4.42269C3.19165 4.60679 3.3009 5.01451 3.11681 5.33337Z" fill="#0047CC"/>
</svg>
