<svg width="14" height="14" viewBox="0 0 14 14" fill="none" xmlns="http://www.w3.org/2000/svg">
<g opacity="0.4">
<path d="M5.46324 6.23123C6.0095 7.1918 6.8082 7.9905 7.76877 8.53673L8.28473 7.81439C8.45629 7.57429 8.7801 7.50009 9.0391 7.64155C9.85973 8.08984 10.7666 8.36226 11.7127 8.43716C12.0161 8.46119 12.25 8.71436 12.25 9.01868V11.622C12.25 11.9211 12.0238 12.1717 11.7263 12.2022C11.4172 12.234 11.1053 12.25 10.7917 12.25C5.79809 12.25 1.75 8.2019 1.75 3.20833C1.75 2.89466 1.766 2.58283 1.79777 2.27369C1.82834 1.97619 2.07897 1.75 2.37805 1.75H4.98133C5.28564 1.75 5.53883 1.98394 5.56284 2.2873C5.63772 3.23335 5.91016 4.14029 6.35845 4.96092C6.49991 5.2199 6.42571 5.54373 6.18561 5.71525L5.46324 6.23123ZM3.99248 5.84803L5.10078 5.05639C4.78652 4.378 4.57116 3.65857 4.46091 2.91667H2.92196C2.91843 3.01369 2.91667 3.11092 2.91667 3.20833C2.91667 7.55755 6.44245 11.0833 10.7917 11.0833C10.8891 11.0833 10.9863 11.0816 11.0833 11.078V9.53907C10.3414 9.42882 9.62202 9.21346 8.94361 8.89922L8.15197 10.0075C7.83172 9.88312 7.52243 9.73671 7.22598 9.57022L7.19209 9.55092C6.04899 8.90091 5.09911 7.95101 4.44908 6.80791L4.4298 6.77402C4.26329 6.47757 4.1169 6.16828 3.99248 5.84803Z" fill="black"/>
</g>
</svg>
