<svg width="20" height="20" viewBox="0 0 20 20" fill="none" xmlns="http://www.w3.org/2000/svg">
<g clip-path="url(#clip0_5221_16151)">
<path d="M12.917 15.4166L10.417 16.6666L10.8337 13.75L9.16699 12.0833L11.667 11.6666L12.917 9.16663L14.167 11.6666L16.667 12.0833L15.0003 13.75L15.417 16.6666L12.917 15.4166Z" stroke="#992894" stroke-width="1.5" stroke-linecap="round" stroke-linejoin="round"/>
<path d="M12.917 15.4166L10.417 16.6666L10.8337 13.75L9.16699 12.0833L11.667 11.6666L12.917 9.16663L14.167 11.6666L16.667 12.0833L15.0003 13.75L15.417 16.6666L12.917 15.4166Z" fill="#992894"/>
<path d="M3.33301 3.33337L9.16634 9.16671" stroke="#992894" stroke-width="1.5" stroke-linecap="round" stroke-linejoin="round"/>
<path d="M7.5 3.33337L10.4167 6.25004" stroke="#992894" stroke-width="1.5" stroke-linecap="round" stroke-linejoin="round"/>
<path d="M3.33301 7.5L6.24967 10.4167" stroke="#992894" stroke-width="1.5" stroke-linecap="round" stroke-linejoin="round"/>
</g>
<defs>
<clipPath id="clip0_5221_16151">
<rect width="20" height="20" fill="white"/>
</clipPath>
</defs>
</svg>
