<svg width="18" height="18" viewBox="0 0 18 18" fill="none" xmlns="http://www.w3.org/2000/svg">
<path d="M13.2429 11.1213L12.1822 10.0606L13.2429 8.99999C14.4145 7.82841 14.4145 5.92892 13.2429 4.75734C12.0713 3.58577 10.1718 3.58577 9.00022 4.75734L7.93957 5.81801L6.87891 4.75734L7.93957 3.69668C9.69689 1.93932 12.5461 1.93932 14.3035 3.69668C16.0609 5.45405 16.0609 8.30331 14.3035 10.0606L13.2429 11.1213ZM11.1215 13.2427L10.0609 14.3033C8.30354 16.0606 5.45428 16.0606 3.69693 14.3033C1.93957 12.5459 1.93957 9.69666 3.69693 7.93934L4.75759 6.87866L5.81824 7.93934L4.75759 8.99999C3.58601 10.1716 3.58601 12.0711 4.75759 13.2427C5.92916 14.4142 7.82864 14.4142 9.00022 13.2427L10.0609 12.1819L11.1215 13.2427ZM11.1215 5.81801L12.1822 6.87866L6.87891 12.1819L5.81824 11.1213L11.1215 5.81801Z" fill="#0047CC"/>
</svg>
