<svg width="20" height="20" viewBox="0 0 20 20" fill="none" xmlns="http://www.w3.org/2000/svg">
<path d="M6.66927 5.83329C4.36809 5.83329 2.5026 7.69878 2.5026 9.99996C2.5026 12.3011 4.36809 14.1666 6.66927 14.1666H13.3359C15.6371 14.1666 17.5026 12.3011 17.5026 9.99996C17.5026 7.69878 15.6371 5.83329 13.3359 5.83329H6.66927ZM6.66927 4.16663H13.3359C16.5576 4.16663 19.1693 6.7783 19.1693 9.99996C19.1693 13.2216 16.5576 15.8333 13.3359 15.8333H6.66927C3.44761 15.8333 0.835938 13.2216 0.835938 9.99996C0.835938 6.7783 3.44761 4.16663 6.66927 4.16663ZM6.66927 12.5C5.28856 12.5 4.16927 11.3807 4.16927 9.99996C4.16927 8.61921 5.28856 7.49996 6.66927 7.49996C8.04998 7.49996 9.16927 8.61921 9.16927 9.99996C9.16927 11.3807 8.04998 12.5 6.66927 12.5Z" fill="#0047CC"/>
</svg>
