<svg width="16" height="16" viewBox="0 0 16 16" fill="none" xmlns="http://www.w3.org/2000/svg">
<g clip-path="url(#clip0_2612_1503)">
<path d="M13.3337 14.6667H12.0003V13.3333C12.0003 12.8029 11.7896 12.2942 11.4145 11.9191C11.0395 11.544 10.5308 11.3333 10.0003 11.3333H6.00032C5.46989 11.3333 4.96118 11.544 4.58611 11.9191C4.21104 12.2942 4.00033 12.8029 4.00033 13.3333V14.6667H2.66699V13.3333C2.66699 12.4493 3.01818 11.6014 3.6433 10.9763C4.26842 10.3512 5.11627 9.99999 6.00032 9.99999H10.0003C10.8844 9.99999 11.7322 10.3512 12.3573 10.9763C12.9825 11.6014 13.3337 12.4493 13.3337 13.3333V14.6667ZM8.00032 8.66666C7.47504 8.66666 6.95489 8.56319 6.46959 8.36217C5.98429 8.16116 5.54333 7.86652 5.1719 7.49508C4.80046 7.12365 4.50583 6.68269 4.30481 6.19739C4.10379 5.71209 4.00033 5.19194 4.00033 4.66666C4.00033 4.14137 4.10379 3.62123 4.30481 3.13592C4.50583 2.65062 4.80046 2.20966 5.1719 1.83823C5.54333 1.4668 5.98429 1.17216 6.46959 0.971138C6.95489 0.77012 7.47504 0.666656 8.00032 0.666656C9.06119 0.666657 10.0786 1.08808 10.8288 1.83823C11.5789 2.58837 12.0003 3.60579 12.0003 4.66666C12.0003 5.72752 11.5789 6.74494 10.8288 7.49508C10.0786 8.24523 9.06119 8.66666 8.00032 8.66666ZM8.00032 7.33332C8.70757 7.33332 9.38585 7.05237 9.88594 6.55227C10.386 6.05218 10.667 5.3739 10.667 4.66666C10.667 3.95941 10.386 3.28114 9.88594 2.78104C9.38585 2.28094 8.70757 1.99999 8.00032 1.99999C7.29308 1.99999 6.6148 2.28094 6.11471 2.78104C5.61461 3.28114 5.33366 3.95941 5.33366 4.66666C5.33366 5.3739 5.61461 6.05218 6.11471 6.55227C6.6148 7.05237 7.29308 7.33332 8.00032 7.33332Z" fill="#12A5F4"/>
</g>
<defs>
<clipPath id="clip0_2612_1503">
<rect width="16" height="16" fill="white"/>
</clipPath>
</defs>
</svg>
